<?xml version="1.0" encoding="iso-8859-1"?>
<!-- Generator: Adobe Illustrator 19.1.0, SVG Export Plug-In . SVG Version: 6.00 Build 0)  -->
<svg version="1.1" id="Capa_1" xmlns="http://www.w3.org/2000/svg" xmlns:xlink="http://www.w3.org/1999/xlink" x="0px" y="0px"
	 viewBox="0 0 536.928 536.928" style="enable-background:new 0 0 536.928 536.928;" xml:space="preserve">
<g>
	<g>
		<path d="M465.583,286.117c0.306-3.618,3.24-6.751,7.129-7.597l43.026-9.505c13.484-2.97,22.521-15.734,21.009-29.668
			c-0.973-8.912-2.359-17.697-4.141-26.104c-2.844-13.718-15.266-23.115-29.128-21.711l-43.44,4.195
			c-4.104,0.378-8.065-1.764-9.577-5.257c-3.493-8.119-7.579-16.076-12.116-23.655c-1.872-3.096-1.35-7.309,1.278-10.279
			l29.164-32.963c9.181-10.351,9.001-25.978-0.414-36.365c-5.923-6.535-12.206-12.818-18.687-18.687
			c-10.387-9.433-26.014-9.613-36.347-0.45l-32.873,29.11c-3.007,2.664-7.328,3.222-10.478,1.332
			c-7.597-4.519-15.59-8.588-23.727-12.044c-3.403-1.44-5.509-5.292-5.113-9.325l4.231-43.692
			c1.314-13.754-8.011-26.284-21.729-29.146c-8.587-1.801-17.391-3.187-26.104-4.141c-13.952-1.512-26.68,7.525-29.65,21.009
			l-9.433,42.648c-0.882,4.051-4.14,7.129-7.903,7.471c-8.839,0.811-17.679,2.215-26.266,4.195
			c-3.546,0.828-7.399-1.027-9.397-4.429L192.574,33.11c-7.021-11.936-21.945-16.581-34.709-10.82
			c-7.939,3.565-15.842,7.597-23.565,12.008c-12.134,6.967-17.139,21.783-11.612,34.439l17.553,40.362
			c1.603,3.672,0.792,7.921-1.962,10.315c-6.733,5.869-13.088,12.17-18.903,18.759c-2.449,2.79-6.751,3.618-10.55,1.98
			L68.734,122.69c-12.656-5.508-27.472-0.522-34.421,11.648c-4.339,7.561-8.371,15.482-12.008,23.547
			c-5.742,12.782-1.098,27.706,10.82,34.727l37.679,22.161c3.547,2.088,5.455,6.084,4.645,9.739
			c-1.963,8.605-3.349,17.445-4.123,26.32c-0.306,3.6-3.24,6.733-7.147,7.597l-42.99,9.505
			c-13.484,2.97-22.521,15.734-21.009,29.668c0.973,8.911,2.359,17.697,4.141,26.104c2.844,13.7,15.23,23.007,29.128,21.711
			l43.44-4.195c3.996-0.522,8.065,1.747,9.577,5.257c3.493,8.119,7.579,16.076,12.116,23.655c1.872,3.096,1.35,7.309-1.278,10.279
			l-29.2,32.963c-9.181,10.351-9.001,25.959,0.414,36.347c5.905,6.499,12.188,12.8,18.687,18.687
			c10.387,9.433,25.996,9.613,36.347,0.45l32.873-29.11c2.989-2.646,7.31-3.222,10.478-1.332c7.597,4.519,15.59,8.569,23.727,12.044
			c3.403,1.44,5.509,5.292,5.113,9.325l-4.231,43.692c-1.314,13.754,8.011,26.284,21.729,29.146
			c8.587,1.801,17.391,3.187,26.104,4.141c1.026,0.108,2.016,0.162,3.024,0.162c12.728,0,23.872-8.677,26.662-21.225l9.433-42.648
			c0.882-4.05,4.14-7.129,7.903-7.471c8.839-0.811,17.679-2.215,26.266-4.195c3.6-0.72,7.399,1.045,9.397,4.429l22.323,37.949
			c7.003,11.936,21.945,16.545,34.709,10.82c7.957-3.583,15.878-7.615,23.547-12.008c12.152-6.967,17.157-21.765,11.63-34.439
			l-17.553-40.344c-1.603-3.672-0.792-7.921,1.962-10.315c6.697-5.833,13.07-12.134,18.867-18.741
			c2.449-2.772,6.751-3.636,10.586-1.98l40.092,17.463c12.62,5.454,27.472,0.522,34.421-11.648
			c4.357-7.597,8.389-15.536,12.008-23.547c5.742-12.782,1.098-27.688-10.82-34.709l-37.643-22.143
			c-3.547-2.07-5.455-6.084-4.627-9.757C463.459,303.832,464.827,294.974,465.583,286.117z M457.031,337.712l37.643,22.125
			c3.979,2.341,5.491,7.417,3.529,11.81c-3.367,7.507-7.129,14.888-11.216,21.999c-2.377,4.177-7.363,5.923-11.63,4.087
			l-40.074-17.463c-10.964-4.771-23.53-2.142-31.271,6.607c-5.292,5.994-11.071,11.737-17.156,17.03
			c-8.767,7.615-11.468,20.108-6.679,31.108l17.571,40.344c1.836,4.249,0.072,9.254-4.087,11.63
			c-7.183,4.105-14.564,7.886-21.999,11.216c-4.447,1.98-9.47,0.432-11.81-3.529l-22.323-37.967
			c-6.049-10.244-17.624-15.428-28.93-12.836c-7.795,1.801-15.842,3.079-23.871,3.817c-11.647,1.062-21.225,9.721-23.853,21.513
			l-9.433,42.648c-0.972,4.501-5.22,7.453-10.135,7.003c-8.156-0.883-16.347-2.179-24.358-3.853
			c-4.735-0.972-7.939-5.202-7.489-9.793l4.231-43.674c1.134-11.774-5.436-23.133-15.986-27.634
			c-7.399-3.169-14.672-6.841-21.585-10.964c-4.141-2.485-8.767-3.691-13.412-3.691c-6.499,0-12.998,2.395-18.219,7.039
			l-32.855,29.092c-3.475,3.06-8.785,2.934-12.332-0.306c-6.067-5.491-11.936-11.378-17.463-17.445
			c-3.222-3.565-3.348-8.857-0.288-12.314l29.2-32.963c7.795-8.786,9.127-21.748,3.258-31.505c-4.123-6.877-7.832-14.114-11-21.495
			c-4.645-10.801-16.058-17.372-27.868-16.076l-43.44,4.195c-4.554,0.378-8.803-2.772-9.775-7.489
			c-1.657-7.85-2.953-16.041-3.871-24.358c-0.504-4.788,2.502-9.145,7.021-10.135l42.972-9.505
			c11.504-2.538,20.217-12.259,21.207-23.619c0.703-8.047,1.963-16.076,3.745-23.907c2.538-11.377-2.701-23.133-13.07-29.236
			l-37.679-22.161c-3.997-2.341-5.509-7.417-3.529-11.81c3.385-7.525,7.147-14.942,11.216-21.999
			c2.377-4.159,7.345-5.905,11.612-4.069l40.074,17.463c11.018,4.807,23.584,2.142,31.253-6.607
			c5.274-5.976,11.089-11.737,17.174-17.048c8.767-7.597,11.468-20.09,6.679-31.09l-17.553-40.344
			c-1.854-4.249-0.09-9.236,4.069-11.63c7.201-4.105,14.6-7.886,22.017-11.234c4.447-1.98,9.47-0.432,11.81,3.529l22.323,37.967
			c6.049,10.244,17.606,15.428,28.93,12.836c7.795-1.801,15.842-3.079,23.871-3.817c11.647-1.062,21.225-9.721,23.853-21.513
			l9.433-42.648c0.972-4.501,5.238-7.525,10.135-7.003c8.156,0.883,16.347,2.179,24.358,3.853c4.735,0.972,7.939,5.202,7.489,9.793
			l-4.231,43.674c-1.134,11.774,5.436,23.133,15.986,27.634c7.399,3.151,14.672,6.841,21.585,10.964
			c9.956,5.941,22.684,4.627,31.631-3.33l32.855-29.092c3.439-3.078,8.75-2.952,12.332,0.306
			c6.067,5.473,11.936,11.36,17.463,17.427c3.222,3.565,3.348,8.876,0.288,12.332l-29.2,32.963
			c-7.795,8.786-9.127,21.748-3.258,31.505c4.123,6.877,7.832,14.114,11,21.495c4.645,10.801,15.878,17.21,27.868,16.076
			l43.44-4.195c4.428-0.522,8.785,2.754,9.775,7.489c1.657,7.85,2.953,16.041,3.871,24.358c0.504,4.788-2.502,9.145-7.021,10.135
			l-43.008,9.505c-11.504,2.538-20.199,12.241-21.189,23.637c-0.685,8.065-1.927,16.094-3.691,23.907
			C441.423,319.853,446.679,331.609,457.031,337.712z"/>
		<path d="M290.957,126.217c-37.949-6.013-76.043,3.114-107.151,25.726s-51.577,55.989-57.59,93.974s3.114,76.043,25.726,107.169
			s56.007,51.577,93.992,57.59c7.633,1.224,15.266,1.818,22.845,1.818c30.155,0,59.463-9.451,84.306-27.544
			c31.108-22.612,51.577-55.988,57.59-93.974c6.013-37.985-3.115-76.043-25.726-107.169
			C362.337,152.681,328.943,132.23,290.957,126.217z M392.889,288.168c-5.256,33.233-23.151,62.433-50.389,82.218
			c-27.22,19.785-60.489,27.76-93.758,22.521c-33.233-5.256-62.433-23.151-82.218-50.389c-19.785-27.22-27.778-60.507-22.503-93.758
			c5.256-33.251,23.169-62.451,50.389-82.236c21.747-15.806,47.401-24.087,73.793-24.087c6.625,0,13.286,0.523,19.965,1.584
			c33.233,5.256,62.433,23.151,82.218,50.389C390.171,221.63,398.164,254.917,392.889,288.168z"/>
	</g>
</g>
<g>
</g>
<g>
</g>
<g>
</g>
<g>
</g>
<g>
</g>
<g>
</g>
<g>
</g>
<g>
</g>
<g>
</g>
<g>
</g>
<g>
</g>
<g>
</g>
<g>
</g>
<g>
</g>
<g>
</g>
</svg>
