<?xml version="1.0" encoding="UTF-8" standalone="no"?>
<!-- Created with Inkscape (http://www.inkscape.org/) -->

<svg
   xmlns:dc="http://purl.org/dc/elements/1.1/"
   xmlns:cc="http://creativecommons.org/ns#"
   xmlns:rdf="http://www.w3.org/1999/02/22-rdf-syntax-ns#"
   xmlns:svg="http://www.w3.org/2000/svg"
   xmlns="http://www.w3.org/2000/svg"
   xmlns:sodipodi="http://sodipodi.sourceforge.net/DTD/sodipodi-0.dtd"
   xmlns:inkscape="http://www.inkscape.org/namespaces/inkscape"
   width="263"
   height="235"
   id="svg5752"
   version="1.1"
   inkscape:version="0.48.4 r9939"
   sodipodi:docname="New document 4">
  <defs
     id="defs5754" />
  <sodipodi:namedview
     id="base"
     pagecolor="#ffffff"
     bordercolor="#666666"
     borderopacity="1.0"
     inkscape:pageopacity="0"
     inkscape:pageshadow="2"
     inkscape:zoom="1.979899"
     inkscape:cx="132.56339"
     inkscape:cy="115.93898"
     inkscape:document-units="px"
     inkscape:current-layer="layer1"
     showgrid="false"
     inkscape:window-width="1366"
     inkscape:window-height="713"
     inkscape:window-x="0"
     inkscape:window-y="30"
     inkscape:window-maximized="1" />
  <metadata
     id="metadata5757">
    <rdf:RDF>
      <cc:Work
         rdf:about="">
        <dc:format>image/svg+xml</dc:format>
        <dc:type
           rdf:resource="http://purl.org/dc/dcmitype/StillImage" />
        <dc:title></dc:title>
      </cc:Work>
    </rdf:RDF>
  </metadata>
  <g
     inkscape:label="Layer 1"
     inkscape:groupmode="layer"
     id="layer1"
     transform="translate(0,-817.36218)">
    <path
       inkscape:connector-curvature="0"
       d="m 256.76034,1046.7552 -250.000007,0 0,-175.00006 250.000007,0 0,175.00006 z"
       style="fill:#ffffff;fill-opacity:1;fill-rule:nonzero;stroke:none"
       id="path980" />
    <path
       inkscape:connector-curvature="0"
       d="m 251.76034,876.75514 -240.000006,0 0,165.00006 240.000006,0 0,-165.00006 z M 6.760333,1051.7552 c -2.7574998,0 -4.9999998,-2.2425 -4.9999998,-5 l 0,-175.00006 c 0,-2.7575 2.2425,-5 4.9999998,-5 l 250.000007,0 c 2.7575,0 5,2.2425 5,5 l 0,175.00006 c 0,2.7575 -2.2425,5 -5,5 l -250.000007,0 z"
       style="fill:#f6f6f6;fill-opacity:1;fill-rule:nonzero;stroke:none"
       id="path982" />
    <path
       inkscape:connector-curvature="0"
       d="m 10.510334,1045.5052 245.000006,0 0,-170.00006 -245.000006,0 0,170.00006 z m -2.5,5 c -1.377501,0 -2.5000008,-1.1213 -2.5000008,-2.5 l 0,-175.00006 c 0,-1.3775 1.1224998,-2.5 2.5000008,-2.5 l 250.000006,0 c 1.37875,0 2.5,1.1225 2.5,2.5 l 0,175.00006 c 0,1.3787 -1.12125,2.5 -2.5,2.5 l -250.000006,0 z"
       style="fill:#dde0e2;fill-opacity:1;fill-rule:nonzero;stroke:none"
       id="path984" />
    <g
       id="g986"
       transform="matrix(1.25,0,0,-1.25,6.760333,1051.7553)">
      <path
         inkscape:connector-curvature="0"
         d="m 0,0 c -2.206,0 -4,1.794 -4,4 l 0,140 c 0,2.206 1.794,4 4,4 l 200,0 c 2.206,0 4,-1.794 4,-4 L 204,4 c 0,-2.206 -1.794,-4 -4,-4 L 0,0 z"
         style="fill:none;stroke:#545e65;stroke-width:2;stroke-linecap:butt;stroke-linejoin:miter;stroke-miterlimit:10;stroke-opacity:1;stroke-dasharray:none"
         id="path988" />
    </g>
    <g
       id="g990"
       transform="matrix(1.25,0,0,-1.25,253.01034,875.50501)">
      <path
         inkscape:connector-curvature="0"
         d="m 0,0 -1,0 -192,0 -1,0 0,-1 0,-132 0,-1 1,0 192,0 1,0 0,1 0,132 0,1 z m -1,-133 -192,0 0,132 192,0 0,-132 z"
         style="fill:#545e65;fill-opacity:1;fill-rule:nonzero;stroke:none"
         id="path992" />
    </g>
    <g
       id="g994"
       transform="matrix(1.25,0,0,-1.25,11.760334,876.75526)">
      <path
         inkscape:connector-curvature="0"
         d="M 0,0 -3,3"
         style="fill:none;stroke:#545e65;stroke-width:1;stroke-linecap:butt;stroke-linejoin:miter;stroke-miterlimit:10;stroke-opacity:1;stroke-dasharray:none"
         id="path996" />
    </g>
    <g
       id="g998"
       transform="matrix(1.25,0,0,-1.25,255.51034,1045.5053)">
      <path
         inkscape:connector-curvature="0"
         d="M 0,0 -3,3"
         style="fill:none;stroke:#545e65;stroke-width:1;stroke-linecap:butt;stroke-linejoin:miter;stroke-miterlimit:10;stroke-opacity:1;stroke-dasharray:none"
         id="path1000" />
    </g>
    <g
       id="g1002"
       transform="matrix(1.25,0,0,-1.25,251.76034,876.75526)">
      <path
         inkscape:connector-curvature="0"
         d="M 0,0 3,3"
         style="fill:none;stroke:#545e65;stroke-width:1;stroke-linecap:butt;stroke-linejoin:miter;stroke-miterlimit:10;stroke-opacity:1;stroke-dasharray:none"
         id="path1004" />
    </g>
    <g
       id="g1006"
       transform="matrix(1.25,0,0,-1.25,8.010334,1045.5053)">
      <path
         inkscape:connector-curvature="0"
         d="M 0,0 3,3"
         style="fill:none;stroke:#545e65;stroke-width:1;stroke-linecap:butt;stroke-linejoin:miter;stroke-miterlimit:10;stroke-opacity:1;stroke-dasharray:none"
         id="path1008" />
    </g>
    <g
       id="g1016"
       transform="matrix(1.25,0,0,-1.25,91.761588,1021.757)">
      <path
         inkscape:connector-curvature="0"
         d="M 0,0 C -13.355,0 -25.912,5.201 -35.355,14.645 -44.799,24.088 -50,36.645 -50,50 l 8,0 C -42,38.781 -37.631,28.234 -29.699,20.301 -21.766,12.369 -11.219,8 0,8 11.219,8 21.766,12.369 29.699,20.301 37.631,28.234 42,38.781 42,50 42,61.219 37.631,71.766 29.699,79.699 l 5.656,5.656 C 44.799,75.912 50,63.355 50,50 50,36.645 44.799,24.088 35.355,14.645 25.912,5.201 13.355,0 0,0"
         style="fill:#dde0e2;fill-opacity:1;fill-rule:nonzero;stroke:none"
         id="path1018" />
    </g>
    <g
       id="g1020"
       transform="matrix(1.25,0,0,-1.25,135.95584,915.06264)">
      <path
         inkscape:connector-curvature="0"
         d="m 0,0 c 9.443,-9.443 14.645,-22 14.645,-35.355 0,-13.356 -5.202,-25.913 -14.645,-35.356 -9.443,-9.443 -22,-14.644 -35.355,-14.644 -13.356,0 -25.913,5.201 -35.356,14.644 -9.443,9.443 -14.644,22 -14.644,35.356"
         style="fill:none;stroke:#545e65;stroke-width:2;stroke-linecap:butt;stroke-linejoin:miter;stroke-miterlimit:10;stroke-opacity:1;stroke-dasharray:none"
         id="path1022" />
    </g>
    <g
       id="g1024"
       transform="matrix(1.25,0,0,-1.25,91.761588,1011.757)">
      <path
         inkscape:connector-curvature="0"
         d="m 0,0 c -11.203,0 -21.744,4.373 -29.686,12.314 l 5.657,5.657 C -17.6,11.541 -9.066,8 0,8 9.064,8 17.6,11.541 24.029,17.971 30.459,24.4 34,32.934 34,42 34,51.066 30.459,59.6 24.029,66.029 17.6,72.459 9.064,76 0,76 l 0,8 C 11.203,84 21.744,79.627 29.686,71.686 37.627,63.744 42,53.203 42,42 42,30.797 37.627,20.256 29.686,12.314 21.744,4.373 11.203,0 0,0"
         style="fill:#d8f0c8;fill-opacity:1;fill-rule:nonzero;stroke:none"
         id="path1026" />
    </g>
    <g
       id="g1028"
       transform="matrix(1.25,0,0,-1.25,91.761588,906.75701)">
      <path
         inkscape:connector-curvature="0"
         d="M 0,0 C 11.203,0 21.744,-4.373 29.686,-12.314 37.627,-20.256 42,-30.797 42,-42 42,-53.203 37.627,-63.744 29.686,-71.686 21.744,-79.627 11.203,-84 0,-84 c -11.203,0 -21.744,4.373 -29.686,12.314"
         style="fill:none;stroke:#545e65;stroke-width:2;stroke-linecap:butt;stroke-linejoin:miter;stroke-miterlimit:10;stroke-opacity:1;stroke-dasharray:none"
         id="path1030" />
    </g>
    <g
       id="g1032"
       transform="matrix(1.25,0,0,-1.25,91.761588,1001.757)">
      <path
         inkscape:connector-curvature="0"
         d="M 0,0 C -9.068,0 -17.604,3.541 -24.031,9.969 -30.459,16.396 -34,24.932 -34,34 l 8,0 c 0,-6.932 2.709,-13.457 7.625,-18.375 C -13.457,10.709 -6.932,8 0,8 6.932,8 13.457,10.709 18.375,15.625 23.291,20.543 26,27.068 26,34 26,40.932 23.291,47.457 18.375,52.375 13.457,57.291 6.932,60 0,60 -6.932,60 -13.457,57.291 -18.375,52.375 l -5.656,5.656 C -17.604,64.459 -9.068,68 0,68 9.068,68 17.604,64.459 24.031,58.031 30.459,51.604 34,43.068 34,34 34,24.932 30.459,16.396 24.031,9.969 17.604,3.541 9.068,0 0,0"
         style="fill:#fcf9de;fill-opacity:1;fill-rule:nonzero;stroke:none"
         id="path1034" />
    </g>
    <g
       id="g1036"
       transform="matrix(1.25,0,0,-1.25,61.722468,929.21802)">
      <path
         inkscape:connector-curvature="0"
         d="M 0,0 C 6.428,6.428 14.963,9.969 24.031,9.969 33.1,9.969 41.635,6.428 48.063,0 c 6.427,-6.428 9.968,-14.963 9.968,-24.031 0,-9.069 -3.541,-17.604 -9.968,-24.032 -6.428,-6.427 -14.963,-9.968 -24.032,-9.968 -9.068,0 -17.603,3.541 -24.031,9.968 -6.428,6.428 -9.969,14.963 -9.969,24.032"
         style="fill:none;stroke:#545e65;stroke-width:2;stroke-linecap:butt;stroke-linejoin:miter;stroke-miterlimit:10;stroke-opacity:1;stroke-dasharray:none"
         id="path1038" />
    </g>
    <g
       id="g1040"
       transform="matrix(1.25,0,0,-1.25,91.761588,926.75714)">
      <path
         inkscape:connector-curvature="0"
         d="m 0,0 0,-8 c 9.926,0 18,-8.074 18,-18 0,-9.926 -8.074,-18 -18,-18 -9.926,0 -18,8.074 -18,18 l -8,0 c 0,-14.336 11.664,-26 26,-26 14.336,0 26,11.664 26,26 C 26,-11.664 14.336,0 0,0"
         style="fill:#c2e9f9;fill-opacity:1;fill-rule:nonzero;stroke:none"
         id="path1042" />
    </g>
    <g
       id="g1044"
       transform="matrix(1.25,0,0,-1.25,59.261588,959.25714)">
      <path
         inkscape:connector-curvature="0"
         d="m 0,0 c 0,-14.336 11.664,-26 26,-26 14.336,0 26,11.664 26,26 0,14.336 -11.664,26 -26,26"
         style="fill:none;stroke:#545e65;stroke-width:2;stroke-linecap:butt;stroke-linejoin:miter;stroke-miterlimit:10;stroke-opacity:1;stroke-dasharray:none"
         id="path1046" />
    </g>
    <g
       id="g1048"
       transform="matrix(1.25,0,0,-1.25,104.26159,959.25701)">
      <path
         inkscape:connector-curvature="0"
         d="m 0,0 c 0,5.514 -4.486,10 -10,10 -5.514,0 -10,-4.486 -10,-10 0,-5.514 4.486,-10 10,-10"
         style="fill:none;stroke:#545e65;stroke-width:2;stroke-linecap:butt;stroke-linejoin:miter;stroke-miterlimit:10;stroke-opacity:1;stroke-dasharray:none"
         id="path1050" />
    </g>
    <g
       id="g1052"
       transform="matrix(1.25,0,0,-1.25,91.761588,981.75701)">
      <path
         inkscape:connector-curvature="0"
         d="m 0,0 c -9.926,0 -18,8.074 -18,18 0,9.926 8.074,18 18,18 9.926,0 18,-8.074 18,-18"
         style="fill:none;stroke:#545e65;stroke-width:2;stroke-linecap:butt;stroke-linejoin:miter;stroke-miterlimit:10;stroke-opacity:1;stroke-dasharray:none"
         id="path1054" />
    </g>
    <g
       id="g1056"
       transform="matrix(1.25,0,0,-1.25,91.761588,936.75814)">
      <path
         inkscape:connector-curvature="0"
         d="M 0,0 0,-5"
         style="fill:none;stroke:#545e65;stroke-width:1;stroke-linecap:butt;stroke-linejoin:miter;stroke-miterlimit:10;stroke-opacity:1;stroke-dasharray:none"
         id="path1058" />
    </g>
    <g
       id="g1060"
       transform="matrix(1.25,0,0,-1.25,118.01146,959.25701)">
      <path
         inkscape:connector-curvature="0"
         d="M 0,0 5,0"
         style="fill:none;stroke:#545e65;stroke-width:1;stroke-linecap:butt;stroke-linejoin:miter;stroke-miterlimit:10;stroke-opacity:1;stroke-dasharray:none"
         id="path1062" />
    </g>
    <g
       id="g1064"
       transform="matrix(1.25,0,0,-1.25,138.01146,959.25701)">
      <path
         inkscape:connector-curvature="0"
         d="M 0,0 5,0"
         style="fill:none;stroke:#545e65;stroke-width:1;stroke-linecap:butt;stroke-linejoin:miter;stroke-miterlimit:10;stroke-opacity:1;stroke-dasharray:none"
         id="path1066" />
    </g>
    <g
       id="g1068"
       transform="matrix(1.25,0,0,-1.25,91.761588,995.50699)">
      <path
         inkscape:connector-curvature="0"
         d="M 0,0 0,-5"
         style="fill:none;stroke:#545e65;stroke-width:1;stroke-linecap:butt;stroke-linejoin:miter;stroke-miterlimit:10;stroke-opacity:1;stroke-dasharray:none"
         id="path1070" />
    </g>
    <g
       id="g1072"
       transform="matrix(1.25,0,0,-1.25,91.761588,1005.507)">
      <path
         inkscape:connector-curvature="0"
         d="M 0,0 0,-5"
         style="fill:none;stroke:#545e65;stroke-width:1;stroke-linecap:butt;stroke-linejoin:miter;stroke-miterlimit:10;stroke-opacity:1;stroke-dasharray:none"
         id="path1074" />
    </g>
    <g
       id="g1076"
       transform="matrix(1.25,0,0,-1.25,91.761588,916.75701)">
      <path
         inkscape:connector-curvature="0"
         d="M 0,0 0,-5"
         style="fill:none;stroke:#545e65;stroke-width:1;stroke-linecap:butt;stroke-linejoin:miter;stroke-miterlimit:10;stroke-opacity:1;stroke-dasharray:none"
         id="path1078" />
    </g>
    <path
       inkscape:connector-curvature="0"
       d="m 225.51659,910.50639 -49.99625,0 0,-5.00125 49.99625,0 0,5.00125 z"
       style="fill:#545e65;fill-opacity:1;fill-rule:nonzero;stroke:none"
       id="path1080" />
    <path
       inkscape:connector-curvature="0"
       d="m 205.51409,920.50764 -29.99375,0 0,-5 29.99375,0 0,5 z"
       style="fill:#545e65;fill-opacity:1;fill-rule:nonzero;stroke:none"
       id="path1082" />
    <path
       inkscape:connector-curvature="0"
       d="m 218.01534,930.50764 -42.495,0 0,-5 42.495,0 0,5 z"
       style="fill:#545e65;fill-opacity:1;fill-rule:nonzero;stroke:none"
       id="path1084" />
    <path
       inkscape:connector-curvature="0"
       d="m 191.76284,993.01264 -16.2425,0 0,-5 16.2425,0 0,5 z"
       style="fill:#545e65;fill-opacity:1;fill-rule:nonzero;stroke:none"
       id="path1086" />
    <path
       inkscape:connector-curvature="0"
       d="m 236.76784,1003.0139 -61.2475,0 0,-5.00001 61.2475,0 0,5.00001 z"
       style="fill:#545e65;fill-opacity:1;fill-rule:nonzero;stroke:none"
       id="path1088" />
    <path
       inkscape:connector-curvature="0"
       d="m 218.01534,1013.0139 -42.495,0 0,-5 42.495,0 0,5 z"
       style="fill:#545e65;fill-opacity:1;fill-rule:nonzero;stroke:none"
       id="path1090" />
    <g
       id="g1092"
       transform="matrix(1.25,0,0,-1.25,94.260338,861.75464)">
      <path
         inkscape:connector-curvature="0"
         d="M 0,0 30,30 60,0"
         style="fill:none;stroke:#545e65;stroke-width:1;stroke-linecap:butt;stroke-linejoin:miter;stroke-miterlimit:10;stroke-opacity:1;stroke-dasharray:none"
         id="path1094" />
    </g>
    <g
       id="g1096"
       transform="matrix(1.25,0,0,-1.25,131.76034,829.25501)">
      <path
         inkscape:connector-curvature="0"
         d="M 0,0 C -2.206,0 -4,1.794 -4,4 -4,6.206 -2.206,8 0,8 2.206,8 4,6.206 4,4 4,1.794 2.206,0 0,0"
         style="fill:#545e65;fill-opacity:1;fill-rule:nonzero;stroke:none"
         id="path1098" />
    </g>
    <g
       id="g1100"
       transform="matrix(1.25,0,0,-1.25,131.76034,818.00477)">
      <path
         inkscape:connector-curvature="0"
         d="m 0,0 c -2.757,0 -5,-2.243 -5,-5 0,-2.757 2.243,-5 5,-5 2.757,0 5,2.243 5,5 0,2.757 -2.243,5 -5,5 m 0,-2 c 1.657,0 3,-1.343 3,-3 0,-1.657 -1.343,-3 -3,-3 -1.657,0 -3,1.343 -3,3 0,1.657 1.343,3 3,3"
         style="fill:#f6f6f6;fill-opacity:1;fill-rule:nonzero;stroke:none"
         id="path1102" />
    </g>
  </g>
</svg>
